<!--?xml version="1.0" encoding="UTF-8"?-->
<svg xmlns="http://www.w3.org/2000/svg" width="1024" height="1024" viewBox="0 0 1024 1024">
<path d="M0 0 C337.92 0 675.84 0 1024 0 C1024 337.92 1024 675.84 1024 1024 C686.08 1024 348.16 1024 0 1024 C0 686.08 0 348.16 0 0 Z " fill="#001235" transform="translate(0,0)"></path>
<path d="M0 0 C1.8820816 -0.0107254 1.8820816 -0.0107254 3.80218506 -0.02166748 C65.71055165 -0.29418095 126.13662767 6.5068002 181.671875 36.203125 C182.33380859 36.55342773 182.99574219 36.90373047 183.67773438 37.26464844 C193.57259342 42.53401596 202.73473687 48.44360246 211.671875 55.203125 C212.24115723 55.62819336 212.81043945 56.05326172 213.39697266 56.49121094 C223.09168802 63.75609772 231.98469715 71.7673956 240.671875 80.203125 C241.26911377 80.7798999 241.86635254 81.3566748 242.48168945 81.95092773 C246.28904567 85.6828703 249.73403099 89.54213879 252.984375 93.765625 C253.45166016 94.36858398 253.91894531 94.97154297 254.40039062 95.59277344 C283.88912626 133.89629307 299.08309518 173.71074336 306.671875 221.203125 C306.79997559 221.99009766 306.92807617 222.77707031 307.06005859 223.58789062 C308.14158727 231.46247638 307.671875 239.18273573 307.671875 247.203125 C236.061875 247.203125 164.451875 247.203125 90.671875 247.203125 C89.021875 239.283125 87.371875 231.363125 85.671875 223.203125 C80.34765181 203.86778816 72.80615855 185.6520518 54.671875 175.203125 C31.22258369 161.88340133 0.55014278 159.93534984 -25.328125 166.203125 C-58.55876481 175.57498933 -81.14006401 200.86324815 -97.86743164 229.82739258 C-113.77840092 258.2740794 -120.8656388 290.05667417 -124.328125 322.203125 C-124.43398926 323.14897461 -124.53985352 324.09482422 -124.64892578 325.06933594 C-126.40303577 341.44288246 -126.53591688 357.81612143 -126.578125 374.265625 C-126.58339203 375.3149823 -126.58865906 376.3643396 -126.59408569 377.44549561 C-126.656642 393.56737546 -126.59139081 409.99309033 -122.203125 425.640625 C-121.88553223 426.79812256 -121.88553223 426.79812256 -121.56152344 427.97900391 C-115.43682402 449.28623879 -105.96546512 467.88157608 -86.640625 479.953125 C-61.53179389 493.80959902 -28.84463732 493.6668595 -1.85546875 485.97265625 C28.06215424 476.69670774 47.25389083 457.30295649 61.671875 430.203125 C66.63147528 420.53151146 71.08988878 410.69651755 74.796875 400.4765625 C75.671875 398.203125 75.671875 398.203125 76.671875 397.203125 C79.51658332 397.105199 82.33701404 397.07320007 85.18214417 397.08287048 C86.53712341 397.08158885 86.53712341 397.08158885 87.91947597 397.08028132 C90.97050691 397.07862374 94.02148383 397.0841524 97.07250977 397.08959961 C99.24996947 397.08988145 101.42742927 397.08972381 103.60488892 397.0891571 C109.53646697 397.088869 115.46802499 397.09476784 121.39959836 397.10173106 C127.59093707 397.10796242 133.78227619 397.10856823 139.97361755 397.10975647 C151.03901347 397.11269318 162.10440107 397.11992331 173.16979318 397.12939919 C187.19173884 397.14134349 201.21368335 397.14752575 215.23563302 397.15280139 C242.71438549 397.16326725 270.19312973 397.18086794 297.671875 397.203125 C297.04597499 400.06076078 296.41770219 402.91784095 295.78808594 405.7746582 C295.61288422 406.5757325 295.4376825 407.37680679 295.25717163 408.20215607 C293.75196274 415.01762465 291.9447304 421.70996004 289.921875 428.390625 C289.57898438 429.53136475 289.23609375 430.67210449 288.8828125 431.84741211 C283.77595268 448.64157226 278.16806143 465.09025165 270.70166016 480.99072266 C269.63911707 483.27350252 268.61277989 485.57032121 267.58984375 487.87109375 C255.45121102 514.80835116 237.32229059 538.38669888 218.06445312 560.59472656 C216.83981669 562.00915588 215.62244707 563.42987006 214.40625 564.8515625 C210.80496784 569.00579744 207.09508988 572.74760939 202.890625 576.2890625 C201.29099103 577.66902842 199.73283327 579.09759197 198.203125 580.5546875 C150.50448753 625.97558105 84.40421923 652.01888025 19.75360107 660.91416931 C17.85490185 661.17771981 15.95865421 661.45878116 14.06274414 661.74169922 C0.19135322 663.56886106 -13.69019042 663.5093813 -27.65649414 663.46386719 C-31.16327777 663.45255075 -34.66975515 663.4592013 -38.17652798 663.47074509 C-59.76542872 663.5310318 -81.27305224 662.7808763 -102.640625 659.453125 C-104.28720093 659.20151611 -104.28720093 659.20151611 -105.96704102 658.94482422 C-125.75369138 655.80844604 -145.32106975 651.56972242 -164.328125 645.203125 C-165.08254883 644.9551416 -165.83697266 644.7071582 -166.61425781 644.45166016 C-204.99346274 631.67773496 -240.23079714 610.18738964 -269.328125 582.203125 C-270.06506592 581.49905518 -270.06506592 581.49905518 -270.81689453 580.78076172 C-277.54058566 574.3282783 -283.63644347 567.57907963 -289.328125 560.203125 C-289.9459082 559.40793457 -289.9459082 559.40793457 -290.57617188 558.59667969 C-299.01149248 547.66881698 -306.28750891 536.06617942 -313.328125 524.203125 C-313.72128906 523.54908691 -314.11445313 522.89504883 -314.51953125 522.22119141 C-331.13241408 494.29039901 -339.19659682 460.69566952 -344.453125 428.890625 C-344.61192139 427.94388916 -344.77071777 426.99715332 -344.93432617 426.02172852 C-347.75016062 408.23353496 -348.70834377 390.50506965 -348.640625 372.515625 C-348.63880219 371.5017572 -348.63697937 370.4878894 -348.63510132 369.44329834 C-348.55634228 343.21884787 -346.80969213 317.69868427 -340.96777344 292.06201172 C-340.34149797 289.26289503 -339.76819274 286.45812388 -339.2109375 283.64453125 C-324.56200598 210.73980069 -289.47394337 146.20006161 -236.953125 93.640625 C-236.08429688 92.75955078 -235.21546875 91.87847656 -234.3203125 90.97070312 C-228.30569131 84.94273588 -222.00633478 79.48118811 -215.328125 74.203125 C-214.62800293 73.63843506 -213.92788086 73.07374512 -213.20654297 72.49194336 C-160.44880579 30.06853939 -94.6653132 7.23058968 -27.74707031 1.49682617 C-25.8148012 1.33083647 -23.88308381 1.15643304 -21.95428467 0.95407104 C-14.62625422 0.21221838 -7.36257504 0.02754222 0 0 Z " fill="#7EACD5" transform="translate(525.328125,154.796875)"></path>
<!-- ВСЕ ОСТАЛЬНЫЕ ТВОИ <path> БЕЗ ИЗМЕНЕНИЙ: -->
<path d="M0 0 C-2.24306311 1.51136873 -4.49342613 3.00904941 -6.75 4.5 C-7.70132813 5.14388672 -7.70132813 5.14388672 -8.671875 5.80078125 C-12.14375043 8.0791995 -13.74424723 9 -18 9 C-18 9.66 -18 10.32 -18 11 C-20.95481492 13.74375671 -21.77471908 14 -26 14 C-26 14.66 -26 15.32 -26 16 C-28.3359375 17.7265625 -28.3359375 17.7265625 -31.375 19.625 C-32.37273437 20.25664062 -33.37046875 20.88828125 -34.3984375 21.5390625 C-37 23 -37 23 -39 23 C-39.33 23.99 -39.66 24.98 -40 26 C-42.1875 27.4375 -42.1875 27.4375 -45 29 C-48.83666608 31.37873297 -51.35344947 33.39106746 -54 37 C-54.61488281 37.28746094 -55.22976563 37.57492188 -55.86328125 37.87109375 C-58.39528295 39.20884236 -59.73596071 40.74320112 -61.5625 42.9375 C-67.29152249 49.76384083 -67.29152249 49.76384083 -71 51 C-71.433125 51.763125 -71.86625 52.52625 -72.3125 53.3125 C-74 56 -74 56 -76.875 57.875 C-80.19259003 60.13096122 -81.79145581 62.19536621 -83.921875 65.51171875 C-85 67 -85 67 -87 68 C-87.391875 68.70125 -87.78375 69.4025 -88.1875 70.125 C-90.58684499 73.93085757 -93.54591526 77.11188577 -97 80 C-97.66 80 -98.32 80 -99 80 C-99.26941406 80.55558594 -99.53882813 81.11117187 -99.81640625 81.68359375 C-101.10328188 84.20213253 -102.49535077 86.62956123 -103.9375 89.0625 C-104.44152344 89.91972656 -104.94554687 90.77695312 -105.46484375 91.66015625 C-106.84045096 93.75681965 -108.07600059 95.40103591 -110 97 C-110.66 97 -111.32 97 -112 97 C-112.144375 97.5775 -112.28875 98.155 -112.4375 98.75 C-112.623125 99.4925 -112.80875 100.235 -113 101 C-113.0825 101.639375 -113.165 102.27875 -113.25 102.9375 C-114.36873229 106.0140138 -116.69064952 107.69064952 -119 110 C-122.26568931 114.49339206 -125.18471953 119.2140232 -128 124 C-128.66 124.99 -129.32 125.98 -130 127 C-130.66 127 -131.32 127 -132 127 C-132.103125 128.258125 -132.20625 129.51625 -132.3125 130.8125 C-132.64657811 133.50898757 -132.82977893 134.76317068 -134.4375 137 C-136 138 -136 138 -138 138 C-138.0825 138.825 -138.165 139.65 -138.25 140.5 C-138.96850744 143.85303473 -140.10732965 146.45317061 -141.6953125 149.47265625 C-150.07044019 164.15200026 -150.07044019 164.15200026 -154 180 C-154.66 180 -155.32 180 -156 180 C-155.938125 180.680625 -155.87625 181.36125 -155.8125 182.0625 C-156.09198873 186.44115673 -157.9819656 190.04876741 -159.984375 193.88671875 C-162.84262677 199.65818868 -163.98697563 205.36072417 -164.9609375 211.67944336 C-165.24799585 213.46351957 -165.61735693 215.23395507 -166 217 C-166.66 217.33 -167.32 217.66 -168 218 C-168.26567004 219.92610779 -168.52275755 221.85423055 -168.71484375 223.7890625 C-169.12775394 226.99053057 -170.03829356 229.9225394 -171 233 C-171.66 233 -172.32 233 -173 233 C-172.58627451 224.55534861 -170.5182055 216.76184531 -168.125 208.6875 C-167.92847839 208.01759033 -167.73195679 207.34768066 -167.52947998 206.6574707 C-149.86617837 146.73478627 -117.69198813 94.53689033 -73.625 50.4375 C-72.75617188 49.55642578 -71.88734375 48.67535156 -70.9921875 47.76757812 C-64.97756631 41.73961088 -58.67820978 36.27806311 -52 31 C-50.94981689 30.15296509 -50.94981689 30.15296509 -49.87841797 29.28881836 C-38.53275651 20.16557682 -26.52740384 12.39649907 -14 5 C-13.03416992 4.42403076 -13.03416992 4.42403076 -12.04882812 3.83642578 C-3.56973879 -1.18991293 -3.56973879 -1.18991293 0 0 Z " fill="#C9DFEE" transform="translate(362,198)"></path>
<!-- …и так далее, до самого конца твоего файла… -->
</svg>
